<svg width="25" height="25" viewBox="0 0 25 25" fill="none" xmlns="http://www.w3.org/2000/svg">
<path d="M17.84 10.4774V3.5C17.84 2.39543 16.9446 1.5 15.84 1.5H3.27521C2.17064 1.5 1.27521 2.39543 1.27521 3.5V21.625C1.27521 22.7296 2.17064 23.625 3.27521 23.625H15.84C16.9446 23.625 17.84 22.7296 17.84 21.625V14.5607" stroke="#E3EEF7" stroke-width="2"/>
<path d="M22.1599 13.5914C22.7121 13.5914 23.1599 13.1437 23.1599 12.5914C23.1599 12.0391 22.7121 11.5914 22.1599 11.5914L22.1599 13.5914ZM10.2156 11.5914C9.66334 11.5914 9.21562 12.0391 9.21562 12.5914C9.21562 13.1437 9.66334 13.5914 10.2156 13.5914L10.2156 11.5914ZM22.1599 11.5914L10.2156 11.5914L10.2156 13.5914L22.1599 13.5914L22.1599 11.5914Z" fill="#E3EEF7"/>
<line x1="9.71231" y1="12.5625" x2="12.1332" y2="14.9834" stroke="#E3EEF7" stroke-width="2" stroke-linecap="round"/>
<line x1="1" y1="-1" x2="4.42365" y2="-1" transform="matrix(0.707107 -0.707107 -0.707107 -0.707107 8.2981 12.5625)" stroke="#E3EEF7" stroke-width="2" stroke-linecap="round"/>
</svg>
