<svg width="25" height="26" viewBox="0 0 25 26" fill="none" xmlns="http://www.w3.org/2000/svg">
<path d="M4.15625 3.625H19.5V7.5625H4.15625C3.06894 7.5625 2.1875 6.68106 2.1875 5.59375C2.1875 4.50644 3.06894 3.625 4.15625 3.625Z" stroke="#F3F6F8" stroke-width="2"/>
<path d="M22.8125 8.5625V22.9062H4.1875C3.08293 22.9062 2.1875 22.0108 2.1875 20.9062V7.81685C2.33857 7.92332 2.49613 8.02512 2.65778 8.11698C3.05121 8.34055 3.56699 8.5625 4.125 8.5625H4.13129H4.13786H4.14473H4.15189H4.15933H4.16706H4.17507H4.18338H4.19196H4.20083H4.20998H4.21941H4.22912H4.2391H4.24937H4.25991H4.27073H4.28182H4.29319H4.30483H4.31674H4.32892H4.34137H4.35409H4.36708H4.38033H4.39385H4.40764H4.42168H4.43599H4.45056H4.46539H4.48048H4.49583H4.51144H4.5273H4.54342H4.55979H4.57642H4.5933H4.61043H4.62781H4.64544H4.66331H4.68144H4.69981H4.71843H4.73729H4.75639H4.77574H4.79532H4.81515H4.83521H4.85552H4.87606H4.89684H4.91785H4.9391H4.96057H4.98229H5.00423H5.0264H5.0488H5.07143H5.09429H5.11737H5.14068H5.16421H5.18796H5.21194H5.23613H5.26055H5.28518H5.31004H5.33511H5.36039H5.38589H5.41161H5.43753H5.46367H5.49002H5.51658H5.54335H5.57032H5.5975H5.62489H5.65248H5.68028H5.70828H5.73648H5.76488H5.79348H5.82227H5.85127H5.88046H5.90985H5.93943H5.96921H5.99918H6.02934H6.05968H6.09022H6.12095H6.15187H6.18297H6.21425H6.24573H6.27738H6.30922H6.34123H6.37343H6.40581H6.43836H6.4711H6.50401H6.53709H6.57035H6.60378H6.63738H6.67116H6.7051H6.73921H6.7735H6.80794H6.84256H6.87734H6.91228H6.94739H6.98266H7.01809H7.05368H7.08943H7.12533H7.1614H7.19762H7.23399H7.27052H7.3072H7.34403H7.38101H7.41815H7.45543H7.49286H7.53044H7.56816H7.60603H7.64404H7.68219H7.72048H7.75892H7.7975H7.83621H7.87506H7.91405H7.95317H7.99243H8.03182H8.07135H8.111H8.15079H8.19071H8.23075H8.27092H8.31122H8.35164H8.39219H8.43286H8.47366H8.51457H8.55561H8.59676H8.63804H8.67943H8.72093H8.76256H8.80429H8.84614H8.8881H8.93018H8.97236H9.01465H9.05705H9.09956H9.14218H9.1849H9.22772H9.27065H9.31367H9.3568H9.40003H9.44336H9.48679H9.53031H9.57393H9.61765H9.66146H9.70536H9.74935H9.79344H9.83761H9.88187H9.92622H9.97066H10.0152H10.0598H10.1045H10.1493H10.1941H10.2391H10.2841H10.3292H10.3743H10.4196H10.4649H10.5103H10.5558H10.6013H10.647H10.6927H10.7384H10.7842H10.8301H10.8761H10.9221H10.9682H11.0144H11.0606H11.1069H11.1532H11.1996H11.2461H11.2926H11.3392H11.3858H11.4325H11.4792H11.526H11.5728H11.6197H11.6667H11.7136H11.7607H11.8078H11.8549H11.902H11.9493H11.9965H12.0438H12.0911H12.1385H12.1859H12.2334H12.2809H12.3284H12.376H12.4235H12.4712H12.5188H12.5665H12.6142H12.6619H12.7097H12.7575H12.8053H12.8532H12.901H12.9489H12.9968H13.0447H13.0927H13.1407H13.1886H13.2366H13.2846H13.3327H13.3807H13.4288H13.4768H13.5249H13.573H13.621H13.6691H13.7172H13.7653H13.8134H13.8616H13.9097H13.9578H14.0059H14.054H14.1021H14.1502H14.1983H14.2464H14.2945H14.3426H14.3906H14.4387H14.4867H14.5348H14.5828H14.6308H14.6788H14.7268H14.7748H14.8227H14.8706H14.9186H14.9664H15.0143H15.0622H15.11H15.1578H15.2055H15.2533H15.301H15.3487H15.3963H15.444H15.4916H15.5391H15.5866H15.6341H15.6816H15.729H15.7764H15.8237H15.871H15.9183H15.9655H16.0127H16.0598H16.1069H16.154H16.2009H16.2479H16.2948H16.3416H16.3884H16.4352H16.4819H16.5285H16.5751H16.6216H16.6681H16.7145H16.7608H16.8071H16.8533H16.8995H16.9456H16.9916H17.0376H17.0835H17.1294H17.1751H17.2208H17.2665H17.312H17.3575H17.4029H17.4482H17.4935H17.5387H17.5838H17.6288H17.6738H17.7186H17.7634H17.8081H17.8528H17.8973H17.9417H17.9861H18.0304H18.0746H18.1187H18.1627H18.2066H18.2504H18.2941H18.3378H18.3813H18.4248H18.4681H18.5113H18.5545H18.5975H18.6405H18.6833H18.726H18.7687H18.8112H18.8536H18.8959H18.9381H18.9802H19.0222H19.0641H19.1058H19.1474H19.189H19.2304H19.2717H19.3128H19.3539H19.3948H19.4356H19.4763H19.5169H19.5573H19.5977H19.6378H19.6779H19.7178H19.7576H19.7973H19.8369H19.8763H19.9156H19.9547H19.9937H20.0326H20.0713H20.1099H20.1484H20.1867H20.2249H20.2629H20.3008H20.3385H20.3761H20.4136H20.4509H20.488H20.525H20.5619H20.5986H20.6351H20.6715H20.7078H20.7439H20.7798H20.8156H20.8512H20.8866H20.9219H20.957H20.992H21.0268H21.0615H21.0959H21.1302H21.1644H21.1983H21.2321H21.2658H21.2992H21.3325H21.3656H21.3986H21.4313H21.4639H21.4963H21.5285H21.5606H21.5924H21.6241H21.6556H21.6869H21.718H21.749H21.7797H21.8103H21.8407H21.8709H21.9009H21.9307H21.9603H21.9897H22.0189H22.0479H22.0768H22.1054H22.1338H22.1621H22.1901H22.2179H22.2455H22.2729H22.3002H22.3272H22.354H22.3806H22.4069H22.4331H22.4591H22.4848H22.5103H22.5357H22.5608H22.5856H22.6103H22.6348H22.659H22.683H22.7068H22.7303H22.7537H22.7768H22.7997H22.8125Z" stroke="#F3F6F8" stroke-width="2"/>
<path d="M16.6562 13.0469H22.8281V18.5156H16.6562C15.5517 18.5156 14.6562 17.6202 14.6562 16.5156V15.0469C14.6562 13.9423 15.5517 13.0469 16.6562 13.0469Z" stroke="#F3F6F8" stroke-width="2"/>
</svg>
