<svg width="24" height="24" viewBox="0 0 24 24" fill="none" xmlns="http://www.w3.org/2000/svg">
<path d="M12 23.7878C13.3017 23.7878 14.3667 22.7228 14.3667 21.4211H9.63326C9.63326 22.7228 10.6983 23.7878 12 23.7878ZM19.1002 16.6876V10.7708C19.1002 7.13787 17.1713 4.09663 13.775 3.29194V2.48725C13.775 1.50506 12.9822 0.712208 12 0.712208C11.0178 0.712208 10.2249 1.50506 10.2249 2.48725V3.29194C6.84052 4.09663 4.89981 7.12604 4.89981 10.7708V16.6876L2.53308 19.0543V20.2377H21.4669V19.0543L19.1002 16.6876ZM16.7334 17.871H7.26653V10.7708C7.26653 7.83606 9.05341 5.44566 12 5.44566C14.9466 5.44566 16.7334 7.83606 16.7334 10.7708V17.871Z" fill="#202020"/>
</svg>
