<svg width="31" height="37" viewBox="0 0 31 37" fill="none" xmlns="http://www.w3.org/2000/svg">
<g clip-path="url(#clip0)">
<path d="M22.647 19.1764C24.3619 18.803 25.6714 17.687 26.0621 15.348C26.6005 12.1526 24.2231 10.3957 20.9483 9.19931L22.1058 4.87709L19.5067 4.18066L18.3783 8.38885C17.6945 8.20562 16.9937 8.03244 16.296 7.86059L17.4303 3.62492L14.8337 2.92888L13.6754 7.24974C13.1095 7.11058 12.5539 6.97355 12.0142 6.82896L12.0176 6.81617L8.43305 5.8541L7.68077 8.6636C7.68077 8.6636 9.60993 9.14134 9.56881 9.16835C10.621 9.45107 10.7988 10.1619 10.7545 10.7224L9.43603 15.6463L7.58284 22.5625C7.44669 22.8853 7.10822 23.3686 6.37212 23.1724C6.39761 23.2112 4.48154 22.6655 4.48154 22.6655L3.12423 25.6688L6.50598 26.575C7.13593 26.7445 7.75241 26.9204 8.35851 27.088L7.18958 31.4596L9.78548 32.156L10.9437 27.8306C11.654 28.0367 12.3417 28.2279 13.0153 28.4074L11.8611 32.7121L14.4601 33.4085L15.6308 29.0452C20.0676 29.9618 23.4247 29.6671 24.918 25.6152C26.1206 22.3531 24.9659 20.4437 22.647 19.1764ZM15.5294 10.9699C16.9953 11.3627 21.732 12.1253 20.902 15.2257C20.1049 18.1977 15.5893 16.6156 14.122 16.2225L15.5294 10.9699ZM11.8586 24.6653L13.4115 18.8742C15.1728 19.3456 20.8342 20.3131 19.9219 23.7208C19.047 26.9888 13.6212 25.1362 11.8586 24.6653Z" fill="#202020"/>
</g>
<defs>
<clipPath id="clip0">
<rect width="22.9066" height="30.5422" fill="white" transform="translate(8.76437 0.784973) rotate(15)"/>
</clipPath>
</defs>
</svg>
