<svg width="25" height="26" viewBox="0 0 25 26" fill="none" xmlns="http://www.w3.org/2000/svg">
<g clip-path="url(#clip0)">
<path d="M12.6251 0.803453C12.5478 0.758794 12.4525 0.758794 12.3751 0.803452L1.99997 6.79347C1.92262 6.83812 1.87497 6.92066 1.87497 7.00997V18.99C1.87497 19.0793 1.92262 19.1618 1.99997 19.2065L12.3751 25.1965C12.4525 25.2412 12.5478 25.2412 12.6251 25.1965L23 19.2065C23.0774 19.1618 23.125 19.0793 23.125 18.99V7.00997C23.125 6.92066 23.0774 6.83813 23 6.79347L12.6251 0.803453ZM20.6654 7.26562L12.5011 11.899L4.46905 7.26562L12.5011 2.63179L20.6654 7.26562ZM3.77896 18.035V9.06379L11.5481 13.5473V22.5205L3.77896 18.035ZM21.221 18.0351L13.4521 22.5205V13.5473L21.221 9.06384V18.0351Z" fill="#F3F6F8" stroke="#F3F6F8" stroke-width="0.5" stroke-linejoin="round"/>
</g>
<defs>
<clipPath id="clip0">
<rect width="25" height="25" fill="white" transform="translate(0 0.5)"/>
</clipPath>
</defs>
</svg>
