<svg width="24" height="24" viewBox="0 0 24 24" fill="none" xmlns="http://www.w3.org/2000/svg">
<path d="M16.7981 14.8815H15.7887L15.4309 14.5365C16.6831 13.0798 17.437 11.1887 17.437 9.13142C17.437 4.54416 13.7186 0.82579 9.13137 0.82579C4.54411 0.82579 0.825745 4.54416 0.825745 9.13142C0.825745 13.7187 4.54411 17.437 9.13137 17.437C11.1886 17.437 13.0797 16.6832 14.5364 15.4309L14.8814 15.7887V16.7982L21.2704 23.1743L23.1743 21.2704L16.7981 14.8815V14.8815ZM9.13137 14.8815C5.94968 14.8815 3.38132 12.3131 3.38132 9.13142C3.38132 5.94972 5.94968 3.38137 9.13137 3.38137C12.3131 3.38137 14.8814 5.94972 14.8814 9.13142C14.8814 12.3131 12.3131 14.8815 9.13137 14.8815Z" fill="#202020"/>
</svg>
