<svg width="27" height="33" viewBox="0 0 27 33" fill="none" xmlns="http://www.w3.org/2000/svg">
<path d="M10.8004 2.38078L9.35992 1.67398V3.27853V18.1527V18.7759L9.91943 19.0505L24.0663 25.9919L25.5068 26.6987V25.0941V10.2199V9.59668L24.9473 9.32215L10.8004 2.38078Z" fill="#202020" stroke="#F6F0D8" stroke-width="2"/>
<path d="M7.29007 8.28313L5.8342 7.53744V9.17317V20.5216V21.133L6.37832 21.4117L19.9303 28.3529L21.3862 29.0986V27.4629V16.1144V15.5031L20.842 15.2244L7.29007 8.28313Z" fill="#202020" stroke="#F6F0D8" stroke-width="2"/>
<path d="M2.95779 14.6133L1.49622 13.8528V15.5004V22.5518V23.1587L2.03464 23.4389L15.5866 30.4902L17.0482 31.2507V29.6031V22.5517V21.9448L16.5097 21.6646L2.95779 14.6133Z" fill="#202020" stroke="#F6F0D8" stroke-width="2"/>
</svg>
